<?xml version="1.0" encoding="UTF-8" standalone="no"?>
<!-- Created with Inkscape (http://www.inkscape.org/) -->

<svg
   width="155.03284mm"
   height="95.203926mm"
   viewBox="0 0 155.03284 95.203926"
   version="1.1"
   id="svg1"
   inkscape:version="1.3.2 (091e20e, 2023-11-25)"
   sodipodi:docname="solr-types.svg"
   xmlns:inkscape="http://www.inkscape.org/namespaces/inkscape"
   xmlns:sodipodi="http://sodipodi.sourceforge.net/DTD/sodipodi-0.dtd"
   xmlns="http://www.w3.org/2000/svg"
   xmlns:svg="http://www.w3.org/2000/svg">
  <sodipodi:namedview
     id="namedview1"
     pagecolor="#ffffff"
     bordercolor="#000000"
     borderopacity="0.25"
     inkscape:showpageshadow="2"
     inkscape:pageopacity="0.0"
     inkscape:pagecheckerboard="0"
     inkscape:deskcolor="#d1d1d1"
     inkscape:document-units="mm"
     inkscape:zoom="1.0090231"
     inkscape:cx="258.66603"
     inkscape:cy="176.90378"
     inkscape:window-width="1392"
     inkscape:window-height="890"
     inkscape:window-x="2351"
     inkscape:window-y="147"
     inkscape:window-maximized="0"
     inkscape:current-layer="layer1" />
  <defs
     id="defs1">
    <clipPath
       clipPathUnits="userSpaceOnUse"
       id="clipPath4">
      <path
         d="m 78.125,112.5 h 2325 v 3284.375 h -2325 z"
         transform="matrix(0.35661692,0,0,0.35661692,-29.4801,-41.733831)"
         clip-rule="evenodd"
         id="path4" />
    </clipPath>
    <clipPath
       clipPathUnits="userSpaceOnUse"
       id="clipPath5">
      <path
         d="M 131.73828,199.74887 H 667.32703 V 311.91406 H 131.73828 Z"
         transform="matrix(0.35661692,0,0,0.35661692,-105.1051,-86.233832)"
         clip-rule="evenodd"
         id="path5" />
    </clipPath>
    <clipPath
       clipPathUnits="userSpaceOnUse"
       id="clipPath6">
      <path
         d="M 131.73828,199.74887 H 667.32703 V 311.91406 H 131.73828 Z"
         transform="matrix(0.35661692,0,0,0.35661692,-119.24573,-100.23383)"
         clip-rule="evenodd"
         id="path6" />
    </clipPath>
    <clipPath
       clipPathUnits="userSpaceOnUse"
       id="clipPath8">
      <path
         d="m 78.125,112.5 h 2325 v 3284.375 h -2325 z"
         transform="matrix(0.35661692,0,0,0.35661692,-29.4801,-41.733831)"
         clip-rule="evenodd"
         id="path8" />
    </clipPath>
    <clipPath
       clipPathUnits="userSpaceOnUse"
       id="clipPath10">
      <path
         d="m 134.54242,1181.1942 h 532.78461 v 140.2064 H 134.54242 Z"
         transform="matrix(0.35661692,0,0,0.35661692,-28.980101,-41.233831)"
         clip-rule="evenodd"
         id="path10" />
    </clipPath>
    <clipPath
       clipPathUnits="userSpaceOnUse"
       id="clipPath12">
      <path
         d="m 134.54242,1181.1942 h 532.78461 v 140.2064 H 134.54242 Z"
         transform="matrix(0.35661692,0,0,0.35661692,-28.980101,-41.233831)"
         clip-rule="evenodd"
         id="path12" />
    </clipPath>
    <clipPath
       clipPathUnits="userSpaceOnUse"
       id="clipPath14">
      <path
         d="m 134.54242,1181.1942 h 532.78461 v 140.2064 H 134.54242 Z"
         transform="matrix(0.35661692,0,0,0.35661692,-28.980101,-41.233831)"
         clip-rule="evenodd"
         id="path14" />
    </clipPath>
    <clipPath
       clipPathUnits="userSpaceOnUse"
       id="clipPath15">
      <path
         d="m 134.54242,1181.1942 h 532.78461 v 140.2064 H 134.54242 Z"
         transform="matrix(0.35661692,0,0,0.35661692,-113.94885,-436.23383)"
         clip-rule="evenodd"
         id="path15" />
    </clipPath>
    <clipPath
       clipPathUnits="userSpaceOnUse"
       id="clipPath16">
      <path
         d="m 134.54242,1181.1942 h 532.78461 v 140.2064 H 134.54242 Z"
         transform="matrix(0.35661692,0,0,0.35661692,-87.745726,-450.23383)"
         clip-rule="evenodd"
         id="path16" />
    </clipPath>
    <clipPath
       clipPathUnits="userSpaceOnUse"
       id="clipPath18">
      <path
         d="m 78.125,112.5 h 2325 v 3284.375 h -2325 z"
         transform="matrix(0.35661692,0,0,0.35661692,-29.4801,-41.733831)"
         clip-rule="evenodd"
         id="path18" />
    </clipPath>
    <clipPath
       clipPathUnits="userSpaceOnUse"
       id="clipPath20">
      <path
         d="m 78.125,112.5 h 2325 v 3284.375 h -2325 z"
         transform="matrix(0.35661692,0,0,0.35661692,-29.4801,-41.733831)"
         clip-rule="evenodd"
         id="path20" />
    </clipPath>
    <clipPath
       clipPathUnits="userSpaceOnUse"
       id="clipPath22">
      <path
         d="m 78.125,112.5 h 2325 v 3284.375 h -2325 z"
         transform="matrix(0.35661692,0,0,0.35661692,-29.4801,-41.733831)"
         clip-rule="evenodd"
         id="path22" />
    </clipPath>
    <clipPath
       clipPathUnits="userSpaceOnUse"
       id="clipPath23">
      <path
         d="M 134.54242,676.45087 H 670.13117 V 788.61603 H 134.54242 Z"
         transform="matrix(0.35661692,0,0,0.35661692,-106.1051,-256.23383)"
         clip-rule="evenodd"
         id="path23" />
    </clipPath>
    <clipPath
       clipPathUnits="userSpaceOnUse"
       id="clipPath24">
      <path
         d="M 134.54242,676.45087 H 670.13117 V 788.61603 H 134.54242 Z"
         transform="matrix(0.35661692,0,0,0.35661692,-108.57385,-270.23383)"
         clip-rule="evenodd"
         id="path24" />
    </clipPath>
    <clipPath
       clipPathUnits="userSpaceOnUse"
       id="clipPath26">
      <path
         d="m 78.125,112.5 h 2325 v 3284.375 h -2325 z"
         transform="matrix(0.35661692,0,0,0.35661692,-29.4801,-41.733831)"
         clip-rule="evenodd"
         id="path26" />
    </clipPath>
    <clipPath
       clipPathUnits="userSpaceOnUse"
       id="clipPath28">
      <path
         d="m 78.125,112.5 h 2325 v 3284.375 h -2325 z"
         transform="matrix(0.35661692,0,0,0.35661692,-29.4801,-41.733831)"
         clip-rule="evenodd"
         id="path28" />
    </clipPath>
    <clipPath
       clipPathUnits="userSpaceOnUse"
       id="clipPath30">
      <path
         d="m 78.125,112.5 h 2325 v 3284.375 h -2325 z"
         transform="matrix(0.35661692,0,0,0.35661692,-28.980101,-41.233831)"
         clip-rule="evenodd"
         id="path30" />
    </clipPath>
    <clipPath
       clipPathUnits="userSpaceOnUse"
       id="clipPath31">
      <path
         d="m 78.125,112.5 h 2325 v 3284.375 h -2325 z"
         transform="matrix(0.35661692,0,0,0.35661692,-101.21448,-208.23383)"
         clip-rule="evenodd"
         id="path31" />
    </clipPath>
    <clipPath
       clipPathUnits="userSpaceOnUse"
       id="clipPath33">
      <path
         d="m 78.125,112.5 h 2325 v 3284.375 h -2325 z"
         transform="matrix(0.35661692,0,0,0.35661692,-29.4801,-41.733831)"
         clip-rule="evenodd"
         id="path33" />
    </clipPath>
    <clipPath
       clipPathUnits="userSpaceOnUse"
       id="clipPath35">
      <path
         d="m 78.125,112.5 h 2325 v 3284.375 h -2325 z"
         transform="matrix(0.35661692,0,0,0.35661692,-29.4801,-41.733831)"
         clip-rule="evenodd"
         id="path35" />
    </clipPath>
    <clipPath
       clipPathUnits="userSpaceOnUse"
       id="clipPath37">
      <path
         d="m 78.125,112.5 h 2325 v 3284.375 h -2325 z"
         transform="matrix(0.35661692,0,0,0.35661692,-29.4801,-41.733831)"
         clip-rule="evenodd"
         id="path37" />
    </clipPath>
    <clipPath
       clipPathUnits="userSpaceOnUse"
       id="clipPath38">
      <path
         d="m 78.125,112.5 h 2325 v 3284.375 h -2325 z"
         transform="matrix(0.35661692,0,0,0.35661692,-400.9801,-302.23384)"
         clip-rule="evenodd"
         id="path38" />
    </clipPath>
    <clipPath
       clipPathUnits="userSpaceOnUse"
       id="clipPath39">
      <path
         d="m 78.125,112.5 h 2325 v 3284.375 h -2325 z"
         transform="matrix(0.35661692,0,0,0.35661692,-400.9801,-316.23384)"
         clip-rule="evenodd"
         id="path39" />
    </clipPath>
    <clipPath
       clipPathUnits="userSpaceOnUse"
       id="clipPath40">
      <path
         d="m 78.125,112.5 h 2325 v 3284.375 h -2325 z"
         transform="matrix(0.35661692,0,0,0.35661692,-400.9801,-345.23384)"
         clip-rule="evenodd"
         id="path40" />
    </clipPath>
    <clipPath
       clipPathUnits="userSpaceOnUse"
       id="clipPath41">
      <path
         d="m 78.125,112.5 h 2325 v 3284.375 h -2325 z"
         transform="matrix(0.35661692,0,0,0.35661692,-400.9801,-359.23383)"
         clip-rule="evenodd"
         id="path41" />
    </clipPath>
    <clipPath
       clipPathUnits="userSpaceOnUse"
       id="clipPath43">
      <path
         d="m 78.125,112.5 h 2325 v 3284.375 h -2325 z"
         transform="matrix(0.35661692,0,0,0.35661692,-29.4801,-41.733831)"
         clip-rule="evenodd"
         id="path43" />
    </clipPath>
    <clipPath
       clipPathUnits="userSpaceOnUse"
       id="clipPath45">
      <path
         d="m 78.125,112.5 h 2325 v 3284.375 h -2325 z"
         transform="matrix(0.35661692,0,0,0.35661692,-29.4801,-41.733831)"
         clip-rule="evenodd"
         id="path45" />
    </clipPath>
    <clipPath
       clipPathUnits="userSpaceOnUse"
       id="clipPath46">
      <path
         d="M 417.75946,984.90509 H 950.54407 V 1097.0703 H 417.75946 Z"
         transform="matrix(0.35661692,0,0,0.35661692,-216.2926,-366.23383)"
         clip-rule="evenodd"
         id="path46" />
    </clipPath>
    <clipPath
       clipPathUnits="userSpaceOnUse"
       id="clipPath47">
      <path
         d="M 417.75946,984.90509 H 950.54407 V 1097.0703 H 417.75946 Z"
         transform="matrix(0.35661692,0,0,0.35661692,-180.7301,-380.23383)"
         clip-rule="evenodd"
         id="path47" />
    </clipPath>
    <clipPath
       clipPathUnits="userSpaceOnUse"
       id="clipPath49">
      <path
         d="m 78.125,112.5 h 2325 v 3284.375 h -2325 z"
         transform="matrix(0.35661692,0,0,0.35661692,-28.980101,-41.233831)"
         clip-rule="evenodd"
         id="path49" />
    </clipPath>
    <clipPath
       clipPathUnits="userSpaceOnUse"
       id="clipPath51">
      <path
         d="m 78.125,112.5 h 2325 v 3284.375 h -2325 z"
         transform="matrix(0.35661692,0,0,0.35661692,-28.980101,-41.233831)"
         clip-rule="evenodd"
         id="path51" />
    </clipPath>
    <clipPath
       clipPathUnits="userSpaceOnUse"
       id="clipPath53">
      <path
         d="m 78.125,112.5 h 2325 v 3284.375 h -2325 z"
         transform="matrix(0.35661692,0,0,0.35661692,-28.980101,-41.233831)"
         clip-rule="evenodd"
         id="path53" />
    </clipPath>
    <clipPath
       clipPathUnits="userSpaceOnUse"
       id="clipPath54">
      <path
         d="m 78.125,112.5 h 2325 v 3284.375 h -2325 z"
         transform="matrix(0.35661692,0,0,0.35661692,-239.37073,-346.23384)"
         clip-rule="evenodd"
         id="path54" />
    </clipPath>
    <clipPath
       clipPathUnits="userSpaceOnUse"
       id="clipPath56">
      <path
         d="m 78.125,112.5 h 2325 v 3284.375 h -2325 z"
         transform="matrix(0.35661692,0,0,0.35661692,-29.4801,-41.733831)"
         clip-rule="evenodd"
         id="path56" />
    </clipPath>
    <clipPath
       clipPathUnits="userSpaceOnUse"
       id="clipPath58">
      <path
         d="m 78.125,112.5 h 2325 v 3284.375 h -2325 z"
         transform="matrix(0.35661692,0,0,0.35661692,-29.4801,-41.733831)"
         clip-rule="evenodd"
         id="path58" />
    </clipPath>
    <clipPath
       clipPathUnits="userSpaceOnUse"
       id="clipPath60">
      <path
         d="m 78.125,112.5 h 2325 v 3284.375 h -2325 z"
         transform="matrix(0.35661692,0,0,0.35661692,-29.4801,-41.733831)"
         clip-rule="evenodd"
         id="path60" />
    </clipPath>
    <clipPath
       clipPathUnits="userSpaceOnUse"
       id="clipPath62">
      <path
         d="m 78.125,112.5 h 2325 v 3284.375 h -2325 z"
         transform="matrix(0.35661692,0,0,0.35661692,-29.4801,-41.733831)"
         clip-rule="evenodd"
         id="path62" />
    </clipPath>
    <clipPath
       clipPathUnits="userSpaceOnUse"
       id="clipPath64">
      <path
         d="m 78.125,112.5 h 2325 v 3284.375 h -2325 z"
         transform="matrix(0.35661692,0,0,0.35661692,-29.4801,-41.733831)"
         clip-rule="evenodd"
         id="path64" />
    </clipPath>
    <clipPath
       clipPathUnits="userSpaceOnUse"
       id="clipPath66">
      <path
         d="m 78.125,112.5 h 2325 v 3284.375 h -2325 z"
         transform="matrix(0.35661692,0,0,0.35661692,-29.4801,-41.733831)"
         clip-rule="evenodd"
         id="path66" />
    </clipPath>
    <clipPath
       clipPathUnits="userSpaceOnUse"
       id="clipPath68">
      <path
         d="m 78.125,112.5 h 2325 v 3284.375 h -2325 z"
         transform="matrix(0.35661692,0,0,0.35661692,-29.4801,-41.733831)"
         clip-rule="evenodd"
         id="path68" />
    </clipPath>
    <clipPath
       clipPathUnits="userSpaceOnUse"
       id="clipPath69">
      <path
         d="m 78.125,112.5 h 2325 v 3284.375 h -2325 z"
         transform="matrix(0.35661692,0,0,0.35661692,-340.9801,-448.23384)"
         clip-rule="evenodd"
         id="path69" />
    </clipPath>
    <clipPath
       clipPathUnits="userSpaceOnUse"
       id="clipPath70">
      <path
         d="m 78.125,112.5 h 2325 v 3284.375 h -2325 z"
         transform="matrix(0.35661692,0,0,0.35661692,-340.9801,-463.23384)"
         clip-rule="evenodd"
         id="path70" />
    </clipPath>
    <clipPath
       clipPathUnits="userSpaceOnUse"
       id="clipPath72">
      <path
         d="m 78.125,112.5 h 2325 v 3284.375 h -2325 z"
         transform="matrix(0.35661692,0,0,0.35661692,-29.4801,-41.733831)"
         clip-rule="evenodd"
         id="path72" />
    </clipPath>
    <clipPath
       clipPathUnits="userSpaceOnUse"
       id="clipPath74">
      <path
         d="M 950.54407,424.07922 H 1483.3286 V 564.2857 H 950.54407 Z"
         transform="matrix(0.35661692,0,0,0.35661692,-28.980101,-41.233831)"
         clip-rule="evenodd"
         id="path74" />
    </clipPath>
    <clipPath
       clipPathUnits="userSpaceOnUse"
       id="clipPath76">
      <path
         d="M 950.54407,424.07922 H 1483.3286 V 564.2857 H 950.54407 Z"
         transform="matrix(0.35661692,0,0,0.35661692,-28.980101,-41.233831)"
         clip-rule="evenodd"
         id="path76" />
    </clipPath>
    <clipPath
       clipPathUnits="userSpaceOnUse"
       id="clipPath78">
      <path
         d="M 950.54407,424.07922 H 1483.3286 V 564.2857 H 950.54407 Z"
         transform="matrix(0.35661692,0,0,0.35661692,-28.980101,-41.233831)"
         clip-rule="evenodd"
         id="path78" />
    </clipPath>
    <clipPath
       clipPathUnits="userSpaceOnUse"
       id="clipPath79">
      <path
         d="M 950.54407,424.07922 H 1483.3286 V 564.2857 H 950.54407 Z"
         transform="matrix(0.35661692,0,0,0.35661692,-404.94885,-166.23383)"
         clip-rule="evenodd"
         id="path79" />
    </clipPath>
    <clipPath
       clipPathUnits="userSpaceOnUse"
       id="clipPath80">
      <path
         d="M 950.54407,424.07922 H 1483.3286 V 564.2857 H 950.54407 Z"
         transform="matrix(0.35661692,0,0,0.35661692,-373.96448,-180.23383)"
         clip-rule="evenodd"
         id="path80" />
    </clipPath>
    <clipPath
       clipPathUnits="userSpaceOnUse"
       id="clipPath82">
      <path
         d="m 78.125,112.5 h 2325 v 3284.375 h -2325 z"
         transform="matrix(0.35661692,0,0,0.35661692,-29.4801,-41.733831)"
         clip-rule="evenodd"
         id="path82" />
    </clipPath>
    <clipPath
       clipPathUnits="userSpaceOnUse"
       id="clipPath83">
      <path
         d="M 950.54407,199.74887 H 1486.1327 V 311.91406 H 950.54407 Z"
         transform="matrix(0.35661692,0,0,0.35661692,-397.1051,-86.233832)"
         clip-rule="evenodd"
         id="path83" />
    </clipPath>
    <clipPath
       clipPathUnits="userSpaceOnUse"
       id="clipPath84">
      <path
         d="M 950.54407,199.74887 H 1486.1327 V 311.91406 H 950.54407 Z"
         transform="matrix(0.35661692,0,0,0.35661692,-380.44885,-100.23383)"
         clip-rule="evenodd"
         id="path84" />
    </clipPath>
    <clipPath
       clipPathUnits="userSpaceOnUse"
       id="clipPath86">
      <path
         d="m 78.125,112.5 h 2325 v 3284.375 h -2325 z"
         transform="matrix(0.35661692,0,0,0.35661692,-29.4801,-41.733831)"
         clip-rule="evenodd"
         id="path86" />
    </clipPath>
    <clipPath
       clipPathUnits="userSpaceOnUse"
       id="clipPath88">
      <path
         d="m 78.125,112.5 h 2325 v 3284.375 h -2325 z"
         transform="matrix(0.35661692,0,0,0.35661692,-29.4801,-41.733831)"
         clip-rule="evenodd"
         id="path88" />
    </clipPath>
    <clipPath
       clipPathUnits="userSpaceOnUse"
       id="clipPath90">
      <path
         d="m 78.125,112.5 h 2325 v 3284.375 h -2325 z"
         transform="matrix(0.35661692,0,0,0.35661692,-29.4801,-41.733831)"
         clip-rule="evenodd"
         id="path90" />
    </clipPath>
    <clipPath
       clipPathUnits="userSpaceOnUse"
       id="clipPath92">
      <path
         d="m 78.125,112.5 h 2325 v 3284.375 h -2325 z"
         transform="matrix(0.35661692,0,0,0.35661692,-29.4801,-41.733831)"
         clip-rule="evenodd"
         id="path92" />
    </clipPath>
    <clipPath
       clipPathUnits="userSpaceOnUse"
       id="clipPath94">
      <path
         d="m 78.125,112.5 h 2325 v 3284.375 h -2325 z"
         transform="matrix(0.35661692,0,0,0.35661692,-29.4801,-41.733831)"
         clip-rule="evenodd"
         id="path94" />
    </clipPath>
    <clipPath
       clipPathUnits="userSpaceOnUse"
       id="clipPath96">
      <path
         d="m 78.125,112.5 h 2325 v 3284.375 h -2325 z"
         transform="matrix(0.35661692,0,0,0.35661692,-29.4801,-41.733831)"
         clip-rule="evenodd"
         id="path96" />
    </clipPath>
    <clipPath
       clipPathUnits="userSpaceOnUse"
       id="clipPath97">
      <path
         d="m 78.125,112.5 h 2325 v 3284.375 h -2325 z"
         transform="matrix(0.35661692,0,0,0.35661692,-560.9801,-109.23383)"
         clip-rule="evenodd"
         id="path97" />
    </clipPath>
    <clipPath
       clipPathUnits="userSpaceOnUse"
       id="clipPath98">
      <path
         d="m 78.125,112.5 h 2325 v 3284.375 h -2325 z"
         transform="matrix(0.35661692,0,0,0.35661692,-560.9801,-123.23383)"
         clip-rule="evenodd"
         id="path98" />
    </clipPath>
  </defs>
  <g
     inkscape:label="Ebene 1"
     inkscape:groupmode="layer"
     id="layer1"
     transform="translate(-56.35625,-48.683333)">
    <path
       id="path3"
       d="M 18,30 H 209 V 70 H 18 Z"
       style="fill:#ffffff;fill-opacity:1;fill-rule:nonzero;stroke:#000000;stroke-width:1;stroke-linecap:butt;stroke-linejoin:miter;stroke-miterlimit:10;stroke-dasharray:none;stroke-opacity:1"
       transform="matrix(0.23741628,0,0,0.23741628,52.201465,41.679553)"
       clip-path="url(#clipPath4)" />
    <text
       id="text4"
       xml:space="preserve"
       transform="matrix(0.23741628,0,0,0.23741628,70.156071,52.244577)"
       clip-path="url(#clipPath5)"><tspan
         style="font-style:oblique;font-variant:normal;font-weight:normal;font-size:12px;font-family:Helvetica;writing-mode:lr-tb;fill:#000000;fill-opacity:1;fill-rule:nonzero;stroke:none"
         x="0 7.0078125 14.015625 17.349609 24.023438 27.357422 34.03125 38.027344 41.361328 48.035156 54.035156 60.708984 67.716797"
         y="0"
         sodipodi:role="line"
         id="tspan4">&lt;&lt;Interface&gt;&gt;</tspan></text>
    <text
       id="text5"
       xml:space="preserve"
       transform="matrix(0.23741628,0,0,0.23741628,73.513286,55.568405)"
       clip-path="url(#clipPath6)"><tspan
         style="font-variant:normal;font-weight:700;font-size:12px;font-family:Helvetica;writing-mode:lr-tb;fill:#000000;fill-opacity:1;fill-rule:nonzero;stroke:none"
         x="0 8.6660156 15.996094 19.330078 25.775391 32.449219 39.779297"
         y="0"
         sodipodi:role="line"
         id="tspan5">AdlType</tspan></text>
    <path
       id="path7"
       d="m 19,380 h 190 v 50 H 19 Z"
       style="fill:#ffe6cc;fill-opacity:1;fill-rule:nonzero;stroke:#d79b00;stroke-width:1;stroke-linecap:butt;stroke-linejoin:miter;stroke-miterlimit:10;stroke-dasharray:none;stroke-opacity:1"
       transform="matrix(0.23741628,0,0,0.23741628,52.201465,41.679553)"
       clip-path="url(#clipPath8)" />
    <path
       id="path9"
       d="m 19,419 h 190 v 1 H 19 Z"
       style="fill:#000000;fill-opacity:1;fill-rule:nonzero;stroke:none"
       transform="matrix(0.23741628,0,0,0.23741628,52.082757,41.560845)"
       clip-path="url(#clipPath10)" />
    <path
       id="path11"
       d="m 208,419 h 1 v 1 h -1 z"
       style="fill:#000000;fill-opacity:1;fill-rule:nonzero;stroke:none"
       transform="matrix(0.23741628,0,0,0.23741628,52.082757,41.560845)"
       clip-path="url(#clipPath12)" />
    <path
       id="path13"
       d="m 19,419 h 1 v 1 h -1 z"
       style="fill:#000000;fill-opacity:1;fill-rule:nonzero;stroke:none"
       transform="matrix(0.23741628,0,0,0.23741628,52.082757,41.560845)"
       clip-path="url(#clipPath14)" />
    <text
       id="text14"
       xml:space="preserve"
       transform="matrix(0.23741628,0,0,0.23741628,72.255721,135.34027)"
       clip-path="url(#clipPath15)"><tspan
         style="font-style:oblique;font-variant:normal;font-weight:normal;font-size:12px;font-family:Helvetica;writing-mode:lr-tb;fill:#000000;fill-opacity:1;fill-rule:nonzero;stroke:none"
         x="0 7.0078125 14.015625 20.689453 27.363281 34.037109 44.033203 51.041016"
         y="0"
         sodipodi:role="line"
         id="tspan14">&lt;&lt;enum&gt;&gt;</tspan></text>
    <text
       id="text15"
       xml:space="preserve"
       transform="matrix(0.23741628,0,0,0.23741628,66.034672,138.6641)"
       clip-path="url(#clipPath16)"><tspan
         style="font-variant:normal;font-weight:700;font-size:12px;font-family:Helvetica;writing-mode:lr-tb;fill:#000000;fill-opacity:1;fill-rule:nonzero;stroke:none"
         x="0 8.6660156 15.339844 19.335938 26.009766 33.339844 36.673828 40.669922 49.335938 56.666016 60 68.003906 75.333984 78.667969 83.337891 89.783203 96.457031 103.78711"
         y="0"
         sodipodi:role="line"
         id="tspan15">DefaultAdlSolrType</tspan></text>
    <path
       id="path17"
       d="m 167.00001,310.00464 -0.0278,-2.99988 0.99997,-0.009 0.0278,2.99988 m -1.05563,-5.99048 -0.0278,-2.99984 0.99997,-0.009 0.0279,2.99985 m -1.05565,-5.99045 -0.0278,-2.99988 0.99997,-0.009 0.0278,2.99988 m -1.05563,-5.99048 -0.0278,-2.99985 0.99997,-0.009 0.0278,2.99984 m -1.05564,-5.99044 -0.0278,-2.99988 0.99997,-0.009 0.0278,2.99988 m -1.05565,-5.99048 -0.0278,-2.99988 0.99997,-0.009 0.0278,2.99987 m -1.05563,-5.99044 -0.0278,-2.99988 0.99997,-0.009 0.0278,2.99988 m -1.05565,-5.99048 -0.0278,-2.99985 0.99997,-0.009 0.0278,2.99985 m -1.05563,-5.99045 -0.0278,-2.99987 0.99997,-0.009 0.0278,2.99988 m -1.05564,-5.99048 -0.0278,-2.99986 0.99996,-0.009 0.0279,2.99986"
       style="fill:#000000;fill-opacity:1;fill-rule:nonzero;stroke:none"
       transform="matrix(0.23741628,0,0,0.23741628,52.201465,41.679553)"
       clip-path="url(#clipPath18)" />
    <path
       id="path19"
       d="m 166.84,239.88 6.63,12.94001 -13,0.11999 z"
       style="fill:none;stroke:#000000;stroke-width:1;stroke-linecap:butt;stroke-linejoin:miter;stroke-miterlimit:10;stroke-dasharray:none;stroke-opacity:1"
       transform="matrix(0.23741628,0,0,0.23741628,52.201465,41.679553)"
       clip-path="url(#clipPath20)" />
    <path
       id="path21"
       d="m 19,200 h 191 v 40 H 19 Z"
       style="fill:#dae8fc;fill-opacity:1;fill-rule:nonzero;stroke:#6c8ebf;stroke-width:1;stroke-linecap:butt;stroke-linejoin:miter;stroke-miterlimit:10;stroke-dasharray:none;stroke-opacity:1"
       transform="matrix(0.23741628,0,0,0.23741628,52.201465,41.679553)"
       clip-path="url(#clipPath22)" />
    <text
       id="text22"
       xml:space="preserve"
       transform="matrix(0.23741628,0,0,0.23741628,70.393487,92.605343)"
       clip-path="url(#clipPath23)"><tspan
         style="font-style:oblique;font-variant:normal;font-weight:normal;font-size:12px;font-family:Helvetica;writing-mode:lr-tb;fill:#000000;fill-opacity:1;fill-rule:nonzero;stroke:none"
         x="0 7.0078125 14.015625 17.349609 24.023438 27.357422 34.03125 38.027344 41.361328 48.035156 54.035156 60.708984 67.716797"
         y="0"
         sodipodi:role="line"
         id="tspan22">&lt;&lt;Interface&gt;&gt;</tspan></text>
    <text
       id="text23"
       xml:space="preserve"
       transform="matrix(0.23741628,0,0,0.23741628,70.979608,95.929171)"
       clip-path="url(#clipPath24)"><tspan
         style="font-variant:normal;font-weight:700;font-size:12px;font-family:Helvetica;writing-mode:lr-tb;fill:#000000;fill-opacity:1;fill-rule:nonzero;stroke:none"
         x="0 8.6660156 15.996094 19.330078 27.333984 34.664062 37.998047 42.667969 49.113281 55.787109 63.117188"
         y="0"
         sodipodi:role="line"
         id="tspan23">AdlSolrType</tspan></text>
    <path
       id="path25"
       d="M 114.5,200 113.73,84.120003"
       style="fill:none;stroke:#000000;stroke-width:1;stroke-linecap:butt;stroke-linejoin:miter;stroke-miterlimit:10;stroke-dasharray:none;stroke-opacity:1"
       transform="matrix(0.23741628,0,0,0.23741628,52.201465,41.679553)"
       clip-path="url(#clipPath26)" />
    <path
       id="path27"
       d="m 113.64,71.120003 6.59,12.949997 -13,0.09 6.41,-13.040001 z"
       style="fill:none;stroke:#000000;stroke-width:1;stroke-linecap:butt;stroke-linejoin:miter;stroke-miterlimit:10;stroke-dasharray:none;stroke-opacity:1"
       transform="matrix(0.23741628,0,0,0.23741628,52.201465,41.679553)"
       clip-path="url(#clipPath28)" />
    <path
       id="path29"
       d="m 72,157 h 39 v 13 H 72 Z"
       style="fill:#ffffff;fill-opacity:1;fill-rule:nonzero;stroke:none"
       transform="matrix(0.23741628,0,0,0.23741628,52.082757,41.560845)"
       clip-path="url(#clipPath30)" />
    <text
       id="text30"
       xml:space="preserve"
       transform="matrix(0.23741628,0,0,0.23741628,69.232373,81.209364)"
       clip-path="url(#clipPath31)"><tspan
         style="font-variant:normal;font-weight:normal;font-size:11px;font-family:Helvetica;writing-mode:lr-tb;fill:#000000;fill-opacity:1;fill-rule:nonzero;stroke:none"
         x="0 6.1176758 11.617676 14.673828 20.791504 26.90918 33.026855"
         y="0"
         sodipodi:role="line"
         id="tspan30">extends</tspan></text>
    <path
       id="path32"
       d="m 370,240 h 287 l 13,13 v 77 H 370 Z"
       style="fill:#ffffcc;fill-opacity:1;fill-rule:nonzero;stroke:#000000;stroke-width:1;stroke-linecap:butt;stroke-linejoin:miter;stroke-miterlimit:10;stroke-dasharray:none;stroke-opacity:1"
       transform="matrix(0.23741628,0,0,0.23741628,52.201465,41.679553)"
       clip-path="url(#clipPath33)" />
    <path
       id="path34"
       d="m 657,240 v 13 h 13 z"
       style="fill:#000000;fill-opacity:0.05;fill-rule:nonzero;stroke:none"
       transform="matrix(0.23741628,0,0,0.23741628,52.201465,41.679553)"
       clip-path="url(#clipPath35)" />
    <path
       id="path36"
       d="m 657,240 v 13 h 13"
       style="fill:none;stroke:#000000;stroke-width:1;stroke-linecap:butt;stroke-linejoin:miter;stroke-miterlimit:10;stroke-dasharray:none;stroke-opacity:1"
       transform="matrix(0.23741628,0,0,0.23741628,52.201465,41.679553)"
       clip-path="url(#clipPath37)" />
    <text
       id="text37"
       xml:space="preserve"
       transform="matrix(0.23741628,0,0,0.23741628,140.40161,103.52649)"
       clip-path="url(#clipPath38)"><tspan
         style="font-variant:normal;font-weight:normal;font-size:10px;font-family:Helvetica;writing-mode:lr-tb;fill:#000000;fill-opacity:1;fill-rule:nonzero;stroke:none"
         x="0 6.6699219 12.231445 14.453125 21.123047 26.68457 28.90625 32.236328 37.797852 42.797852 48.359375 53.920898 56.699219 60.029297 65.59082 71.152344 74.482422 80.043945 85.043945 90.605469 96.166992 98.945312 103.94531 106.72363 109.50195 115.06348 120.625 123.40332 128.96484 133.96484 139.52637 141.74805 143.96973 149.53125 155.09277 157.31445 162.87598 165.6543 171.21582 176.77734 179.55566 181.77734 186.77734 192.33887 195.11719 200.67871 206.24023 209.01855 214.58008 217.3584 220.13672 225.13672 230.69824 236.25977 241.25977"
         y="0"
         sodipodi:role="line"
         id="tspan37">AdlSolrType represents the available native data types.</tspan></text>
    <text
       id="text38"
       xml:space="preserve"
       transform="matrix(0.23741628,0,0,0.23741628,140.40161,106.85032)"
       clip-path="url(#clipPath39)"><tspan
         style="font-variant:normal;font-weight:normal;font-size:10px;font-family:Helvetica;writing-mode:lr-tb;fill:#000000;fill-opacity:1;fill-rule:nonzero;stroke:none"
         x="0 5 10.561523 13.339844 18.339844 21.669922 27.231445 32.792969 35.571289 41.132812 43.911133 49.472656 55.03418 57.8125 63.374023 68.374023 71.152344 76.713867 82.275391 87.836914 93.398438 98.959961 101.18164 106.74316 109.52148 112.2998 117.2998 122.86133 128.42285 131.20117 136.20117 141.20117 146.20117 148.97949 154.54102 162.87109 165.64941 168.42773 173.98926 176.21094 181.21094 183.98926 186.21094 191.21094 193.98926 199.55078 205.1123 207.89062 210.1123 215.67383 218.45215 224.01367 227.34375 230.12207 235.68359 240.68359 246.24512"
         y="0"
         sodipodi:role="line"
         id="tspan38">To create an extendable type system this is an interface.</tspan></text>
    <text
       id="text39"
       xml:space="preserve"
       transform="matrix(0.23741628,0,0,0.23741628,140.40161,113.73539)"
       clip-path="url(#clipPath40)"><tspan
         style="font-variant:normal;font-weight:normal;font-size:10px;font-family:Helvetica;writing-mode:lr-tb;fill:#000000;fill-opacity:1;fill-rule:nonzero;stroke:none"
         x="0 7.2216797 12.22168 17.783203 23.344727 31.674805 33.896484 38.896484 41.674805 44.453125 49.453125 55.014648 60.576172 63.354492 68.916016 74.477539 79.477539 85.039062 88.369141 93.930664 96.708984 98.930664 104.49219 110.05371 112.83203 118.39355 120.61523 122.83691 128.39844 135.62012 140.62012 143.39844 146.17676 151.73828 154.5166 160.07812 165.63965 167.86133 172.86133 177.86133 180.08301 185.08301 187.86133 192.86133 196.19141 201.75293 207.31445 210.09277 215.6543 218.43262 223.43262 228.99414 233.99414 236.77246 242.33398 250.66406 253.44238 256.2207 261.2207 266.78223 272.34375 277.34375 280.12207 285.68359"
         y="0"
         sodipodi:role="line"
         id="tspan39">Dynamic type decoration allows to quickly create custom types by</tspan></text>
    <text
       id="text40"
       xml:space="preserve"
       transform="matrix(0.23741628,0,0,0.23741628,140.40161,117.05922)"
       clip-path="url(#clipPath41)"><tspan
         style="font-variant:normal;font-weight:normal;font-size:10px;font-family:Helvetica;writing-mode:lr-tb;fill:#000000;fill-opacity:1;fill-rule:nonzero;stroke:none"
         x="0 5.5615234 11.123047 16.123047 21.68457 25.014648 30.576172 33.354492 35.576172 41.137695 46.699219 49.477539 55.039062 60.600586 63.378906 68.94043 73.94043 76.162109 81.162109 83.94043 86.162109 91.723633 97.285156 100.06348 102.8418 107.8418 113.40332 118.96484 121.74316 128.96484 131.18652 133.96484 139.52637 142.30469 147.86621 153.42773 155.64941 161.21094 166.21094 168.98926 174.55078 180.1123 182.89062 188.45215 194.01367 199.5752 205.13672 210.13672 212.3584 217.91992 221.25 224.02832 227.3584 230.13672 235.69824 239.02832 247.3584 252.91992 255.69824 258.47656 260.69824 266.25977 271.82129 275.15137"
         y="0"
         sodipodi:role="line"
         id="tspan40">decorating an existing type with adjusted behavior (formatting).</tspan></text>
    <path
       id="path42"
       d="m 369.43018,258.69092 -2.52564,-1.61902 0.53967,-0.84186 2.52564,1.61902 z m -5.05124,-3.23802 -2.52564,-1.61902 0.53967,-0.84189 2.52564,1.61902 z m -5.05124,-3.23806 -2.52564,-1.61901 0.53968,-0.84189 2.52563,1.61902 z m -5.05127,-3.23805 -2.52561,-1.61902 0.53968,-0.84186 2.5256,1.61902 z m -5.05124,-3.23802 -2.52564,-1.61902 0.53968,-0.84189 2.52563,1.61902 z m -5.05124,-3.23805 -2.52563,-1.61902 0.53967,-0.84189 2.52563,1.61902 z m -5.05124,-3.23804 -2.52563,-1.61902 0.53967,-0.84189 2.52563,1.61902 z m -5.05127,-3.23805 -2.5256,-1.61902 0.53967,-0.84186 2.5256,1.61902 z m -5.05124,-3.23802 -2.52563,-1.61904 0.53967,-0.84189 2.52564,1.61904 z m -5.05124,-3.23806 -2.52563,-1.61902 0.53967,-0.84188 2.52564,1.61902 z m -5.05124,-3.23803 -2.52563,-1.61902 0.53967,-0.84189 2.52564,1.61902 z m -5.05126,-3.23807 -2.52561,-1.61902 0.53967,-0.84186 2.52561,1.61902 z M 308.91321,220.5 h -3 v -1 h 3 z m -6,0 h -3 v -1 h 3 z m -6,0 h -3 v -1 h 3 z m -6,0 h -3 v -1 h 3 z m -6,0 h -3 v -1 h 3 z m -6,0 h -3 v -1 h 3 z m -6,0 h -3 v -1 h 3 z m -6,0 h -3 v -1 h 3 z m -6,0 h -3 v -1 h 3 z m -6,0 h -3 v -1 h 3 z m -6,0 h -3 v -1 h 3 z m -6,0 h -3 v -1 h 3 z m -6,0 h -3 v -1 h 3 z m -6,0 h -3 v -1 h 3 z m -6,0 h -3 v -1 h 3 z m -6,0 h -3 v -1 h 3 z m -6,0 H 210 v -1 h 2.91321 z"
       style="fill:#000000;fill-opacity:1;fill-rule:nonzero;stroke:none"
       transform="matrix(0.23741628,0,0,0.23741628,52.201465,41.679553)"
       clip-path="url(#clipPath43)" />
    <path
       id="path44"
       d="m 120,310 h 190 v 40 H 120 Z"
       style="fill:#ffe6cc;fill-opacity:1;fill-rule:nonzero;stroke:#d79b00;stroke-width:1;stroke-linecap:butt;stroke-linejoin:miter;stroke-miterlimit:10;stroke-dasharray:none;stroke-opacity:1"
       transform="matrix(0.23741628,0,0,0.23741628,52.201465,41.679553)"
       clip-path="url(#clipPath45)" />
    <text
       id="text45"
       xml:space="preserve"
       transform="matrix(0.23741628,0,0,0.23741628,96.553792,118.72113)"
       clip-path="url(#clipPath46)"><tspan
         style="font-style:oblique;font-variant:normal;font-weight:normal;font-size:12px;font-family:Helvetica;writing-mode:lr-tb;fill:#000000;fill-opacity:1;fill-rule:nonzero;stroke:none"
         x="0 7.0078125 14.015625 20.015625 22.681641 29.355469 35.355469 41.355469 48.363281"
         y="0"
         sodipodi:role="line"
         id="tspan45">&lt;&lt;class&gt;&gt;</tspan></text>
    <text
       id="text46"
       xml:space="preserve"
       transform="matrix(0.23741628,0,0,0.23741628,88.110676,122.04496)"
       clip-path="url(#clipPath47)"><tspan
         style="font-variant:normal;font-weight:700;font-size:12px;font-family:Helvetica;writing-mode:lr-tb;fill:#000000;fill-opacity:1;fill-rule:nonzero;stroke:none"
         x="0 8.6660156 15.996094 19.330078 27.333984 34.664062 37.998047 42.667969 49.113281 55.787109 63.117188 69.791016 78.457031 85.130859 91.804688 99.134766 103.80469 110.47852 114.47461 121.80469"
         y="0"
         sodipodi:role="line"
         id="tspan46">AdlSolrTypeDecorator</tspan></text>
    <path
       id="path48"
       d="M 262.5,310 262,230 h -47.53"
       style="fill:none;stroke:#000000;stroke-width:1;stroke-linecap:butt;stroke-linejoin:miter;stroke-miterlimit:10;stroke-dasharray:none;stroke-opacity:1"
       transform="matrix(0.23741628,0,0,0.23741628,52.082757,41.560845)"
       clip-path="url(#clipPath49)" />
    <path
       id="path50"
       d="m 220.24001,226 -8,4 8,4"
       style="fill:none;stroke:#000000;stroke-width:1;stroke-linecap:butt;stroke-linejoin:miter;stroke-miterlimit:10;stroke-dasharray:none;stroke-opacity:1"
       transform="matrix(0.23741628,0,0,0.23741628,52.082757,41.560845)"
       clip-path="url(#clipPath51)" />
    <path
       id="path52"
       d="m 210,295 h 43 v 13 h -43 z"
       style="fill:#ffffff;fill-opacity:1;fill-rule:nonzero;stroke:none"
       transform="matrix(0.23741628,0,0,0.23741628,52.082757,41.560845)"
       clip-path="url(#clipPath53)" />
    <text
       id="text53"
       xml:space="preserve"
       transform="matrix(0.23741628,0,0,0.23741628,102.03292,113.97281)"
       clip-path="url(#clipPath54)"><tspan
         style="font-variant:normal;font-weight:normal;font-size:11px;font-family:Helvetica;writing-mode:lr-tb;fill:#000000;fill-opacity:1;fill-rule:nonzero;stroke:none"
         x="0 6.1176758 12.235352 14.679199 20.796875 26.914551 33.032227 36.088379"
         y="0"
         sodipodi:role="line"
         id="tspan53">delegate</tspan></text>
    <path
       id="path55"
       d="m 370.06311,299.26599 -2.97601,0.37866 -0.12622,-0.992 2.97601,-0.37866 m -5.82581,1.74933 -2.97598,0.37869 -0.12622,-0.99201 2.97598,-0.37869 m -5.82577,1.74936 -2.97602,0.37866 -0.12622,-0.992 2.97602,-0.37866 m -5.82578,1.74932 -2.97601,0.3787 -0.12622,-0.99201 2.97601,-0.37869 m -5.8258,1.74936 -2.97602,0.37866 -0.12622,-0.992 2.97602,-0.37867 m -5.82581,1.74933 -2.97598,0.37867 -0.12622,-0.99201 2.97598,-0.37866 m -5.82578,1.74936 -2.97601,0.37866 -0.12622,-0.992 2.97601,-0.37867 m -5.82577,1.74933 -2.97602,0.37866 -0.12622,-0.992 2.97602,-0.37866 m -5.82581,1.74936 -2.97601,0.37866 -0.12622,-0.99201 2.97601,-0.37866 m -5.8258,1.74933 -2.97599,0.37866 -0.12622,-0.992 2.97598,-0.37866 m -5.82577,1.74933 -2.97601,0.37869 -0.12622,-0.99201 2.97601,-0.37869 m -5.82578,1.74936 -2.97601,0.37866 -0.12622,-0.992 2.97601,-0.37866 m -5.8258,1.74932 -2.97602,0.37867 -0.12622,-0.99201 2.97602,-0.37866 m -5.82581,1.74936 -2.97598,0.37866 -0.12622,-0.992 2.97598,-0.37867 m -5.82578,1.74933 -2.97601,0.37867 -0.12622,-0.99201 2.97601,-0.37866 m -5.82577,1.74936 -0.54984,0.0699 -0.12622,-0.992 0.54984,-0.07"
       style="fill:#000000;fill-opacity:1;fill-rule:nonzero;stroke:none"
       transform="matrix(0.23741628,0,0,0.23741628,52.201465,41.679553)"
       clip-path="url(#clipPath56)" />
    <path
       id="path57"
       d="m 66,379.99911 0.0052,-3 1,0.002 -0.0052,3 m -0.989517,-6.00178 0.0052,-3 1,0.002 -0.0052,3 m -0.98951,-6.00174 0.0052,-3 1,0.002 -0.0052,3 m -0.989517,-6.00177 0.0052,-3 1,0.002 -0.0052,3 m -0.98951,-6.00177 0.0052,-3 1,0.002 -0.0052,3 m -0.989517,-6.00177 0.0052,-2.99997 1,0.002 -0.0052,2.99997 m -0.989509,-6.00174 0.0052,-3 1,0.002 -0.0052,3 m -0.989518,-6.00177 0.0052,-3 1,0.002 -0.0052,3 m -0.989509,-6.00177 0.0052,-3 1,0.002 -0.0052,3 m -0.989517,-6.00174 0.0052,-3 1,0.002 -0.0052,3 m -0.989518,-6.00177 0.0052,-3 1,0.002 -0.0052,3 m -0.989509,-6.00177 0.0052,-3 1,0.002 -0.0052,3 m -0.989517,-6.00174 0.0052,-3 1,0.002 -0.0052,3 m -0.98951,-6.00177 0.0052,-3 1,0.002 -0.0052,3 m -0.989517,-6.00177 0.0052,-3 1,0.002 -0.0052,3 m -0.98951,-6.00177 0.0052,-3 1,0.002 -0.0052,3 m -0.989517,-6.00174 0.0052,-3 1,0.002 -0.0052,3 m -0.98951,-6.00177 0.0052,-3 1,0.002 -0.0052,3 m -0.989517,-6.00177 0.0052,-2.99997 1,0.002 -0.0052,2.99997 m -0.989509,-6.00174 0.0052,-3 1,0.002 -0.0052,3 m -0.989518,-6.00177 0.0052,-3 1,0.002 -0.0052,3"
       style="fill:#000000;fill-opacity:1;fill-rule:nonzero;stroke:none"
       transform="matrix(0.23741628,0,0,0.23741628,52.201465,41.679553)"
       clip-path="url(#clipPath58)" />
    <path
       id="path59"
       d="m 66.75,241.12 6.470001,13.01 -13,-0.02 z"
       style="fill:none;stroke:#000000;stroke-width:1;stroke-linecap:butt;stroke-linejoin:miter;stroke-miterlimit:10;stroke-dasharray:none;stroke-opacity:1"
       transform="matrix(0.23741628,0,0,0.23741628,52.201465,41.679553)"
       clip-path="url(#clipPath60)" />
    <path
       id="path61"
       d="m 309.97528,410.49939 -2.99634,-0.14835 0.0494,-0.99878 2.99634,0.14835 m -6.04212,0.70212 -2.9963,-0.14835 0.0494,-0.99878 2.9963,0.14835 m -6.04208,0.70212 -2.99634,-0.14835 0.0494,-0.99878 2.99634,0.14835 m -6.04212,0.70212 -2.9963,-0.14835 0.0494,-0.99878 2.9963,0.14835 m -6.04208,0.70208 -2.99634,-0.14831 0.0494,-0.99878 2.99634,0.14831 m -6.04212,0.70212 -2.9963,-0.14831 0.0494,-0.99878 2.99631,0.14831 m -6.04208,0.70212 -2.99634,-0.14835 0.0494,-0.99877 2.99634,0.14834 m -6.04212,0.70212 -2.99631,-0.14835 0.0494,-0.99878 2.99631,0.14835 m -6.04208,0.70212 -2.99634,-0.14835 0.0494,-0.99878 2.99634,0.14835 m -6.04212,0.70212 -2.99632,-0.14835 0.0494,-0.99878 2.99632,0.14835 m -6.04208,0.70208 -2.99634,-0.14831 0.0494,-0.99878 2.99633,0.14832 m -6.04211,0.70211 -2.99632,-0.14831 0.0494,-0.99878 2.99632,0.14831 m -6.04209,0.70212 -2.99633,-0.14834 0.0494,-0.99878 2.99633,0.14834 m -6.04211,0.70212 -2.99632,-0.14835 0.0494,-0.99877 2.99633,0.14834 m -6.04209,0.70212 -2.99633,-0.14835 0.0494,-0.99878 2.99634,0.14835 m -6.04211,0.70212 -2.99632,-0.14835 0.0494,-0.99878 2.99633,0.14835 m -6.04209,0.70209 -2.99634,-0.14832 0.0494,-0.99878 2.99634,0.14832"
       style="fill:#000000;fill-opacity:1;fill-rule:nonzero;stroke:none"
       transform="matrix(0.23741628,0,0,0.23741628,52.201465,41.679553)"
       clip-path="url(#clipPath62)" />
    <path
       id="path63"
       d="m 310,390 h 247 l 13,13 v 27 H 310 Z"
       style="fill:#ffffcc;fill-opacity:1;fill-rule:nonzero;stroke:#000000;stroke-width:1;stroke-linecap:butt;stroke-linejoin:miter;stroke-miterlimit:10;stroke-dasharray:none;stroke-opacity:1"
       transform="matrix(0.23741628,0,0,0.23741628,52.201465,41.679553)"
       clip-path="url(#clipPath64)" />
    <path
       id="path65"
       d="m 557,390 v 13 h 13 z"
       style="fill:#000000;fill-opacity:0.05;fill-rule:nonzero;stroke:none"
       transform="matrix(0.23741628,0,0,0.23741628,52.201465,41.679553)"
       clip-path="url(#clipPath66)" />
    <path
       id="path67"
       d="m 557,390 v 13 h 13"
       style="fill:none;stroke:#000000;stroke-width:1;stroke-linecap:butt;stroke-linejoin:miter;stroke-miterlimit:10;stroke-dasharray:none;stroke-opacity:1"
       transform="matrix(0.23741628,0,0,0.23741628,52.201465,41.679553)"
       clip-path="url(#clipPath68)" />
    <text
       id="text68"
       xml:space="preserve"
       transform="matrix(0.23741628,0,0,0.23741628,126.15663,138.18927)"
       clip-path="url(#clipPath69)"><tspan
         style="font-variant:normal;font-weight:normal;font-size:10px;font-family:Helvetica;writing-mode:lr-tb;fill:#000000;fill-opacity:1;fill-rule:nonzero;stroke:none"
         x="0 6.1230469 8.9013672 13.901367 19.462891 22.241211 25.019531 30.581055 33.359375 36.137695 41.137695 46.699219 55.029297 63.359375 68.920898 74.482422 77.260742 83.930664 89.492188 91.713867 95.043945 98.374023 101.15234 106.15234 111.71387 117.27539 122.27539 125.05371 127.83203 133.39355 136.72363 139.50195 145.06348 150.625 155.625 160.625 163.40332 171.7334 177.29492 182.85645 188.41797 190.63965 196.20117 201.7627 204.54102 210.10254 212.88086 215.65918 221.2207 226.78223 229.56055 231.78223 236.78223"
         y="0"
         sodipodi:role="line"
         id="tspan68">A set of common Solr-types for easy mapping of native</tspan></text>
    <text
       id="text69"
       xml:space="preserve"
       transform="matrix(0.23741628,0,0,0.23741628,126.15663,141.75051)"
       clip-path="url(#clipPath70)"><tspan
         style="font-variant:normal;font-weight:normal;font-size:10px;font-family:Helvetica;writing-mode:lr-tb;fill:#000000;fill-opacity:1;fill-rule:nonzero;stroke:none"
         x="0 2.7783203 7.7783203 13.339844 18.901367 23.901367 26.679688 29.458008 35.019531 37.250977 43.920898 51.142578 56.704102 60.03418 62.8125 67.8125 73.374023 78.935547"
         y="0"
         sodipodi:role="line"
         id="tspan69">types to ADL-types</tspan></text>
    <path
       id="path71"
       d="m 310,110 h 190 v 50 H 310 Z"
       style="fill:#ffe6cc;fill-opacity:1;fill-rule:nonzero;stroke:#d79b00;stroke-width:1;stroke-linecap:butt;stroke-linejoin:miter;stroke-miterlimit:10;stroke-dasharray:none;stroke-opacity:1"
       transform="matrix(0.23741628,0,0,0.23741628,52.201465,41.679553)"
       clip-path="url(#clipPath72)" />
    <path
       id="path73"
       d="m 310,149 h 190 v 1 H 310 Z"
       style="fill:#000000;fill-opacity:1;fill-rule:nonzero;stroke:none"
       transform="matrix(0.23741628,0,0,0.23741628,52.082757,41.560845)"
       clip-path="url(#clipPath74)" />
    <path
       id="path75"
       d="m 499,149 h 1 v 1 h -1 z"
       style="fill:#000000;fill-opacity:1;fill-rule:nonzero;stroke:none"
       transform="matrix(0.23741628,0,0,0.23741628,52.082757,41.560845)"
       clip-path="url(#clipPath76)" />
    <path
       id="path77"
       d="m 310,149 h 1 v 1 h -1 z"
       style="fill:#000000;fill-opacity:1;fill-rule:nonzero;stroke:none"
       transform="matrix(0.23741628,0,0,0.23741628,52.082757,41.560845)"
       clip-path="url(#clipPath78)" />
    <text
       id="text78"
       xml:space="preserve"
       transform="matrix(0.23741628,0,0,0.23741628,141.34386,71.237879)"
       clip-path="url(#clipPath79)"><tspan
         style="font-style:oblique;font-variant:normal;font-weight:normal;font-size:12px;font-family:Helvetica;writing-mode:lr-tb;fill:#000000;fill-opacity:1;fill-rule:nonzero;stroke:none"
         x="0 7.0078125 14.015625 20.689453 27.363281 34.037109 44.033203 51.041016"
         y="0"
         sodipodi:role="line"
         id="tspan78">&lt;&lt;enum&gt;&gt;</tspan></text>
    <text
       id="text79"
       xml:space="preserve"
       transform="matrix(0.23741628,0,0,0.23741628,133.98766,74.561707)"
       clip-path="url(#clipPath80)"><tspan
         style="font-variant:normal;font-weight:700;font-size:12px;font-family:Helvetica;writing-mode:lr-tb;fill:#000000;fill-opacity:1;fill-rule:nonzero;stroke:none"
         x="0 8.6660156 15.339844 19.335938 26.009766 33.339844 36.673828 40.669922 48.673828 56.003906 59.337891 64.007812 71.337891 78.667969 83.337891 94.007812 100.68164 104.67773 108.67383 115.34766"
         y="0"
         sodipodi:role="line"
         id="tspan79">DefaultSolrFormatter</tspan></text>
    <path
       id="path81"
       d="M 310,30 H 501 V 70 H 310 Z"
       style="fill:#ffffff;fill-opacity:1;fill-rule:nonzero;stroke:#000000;stroke-width:1;stroke-linecap:butt;stroke-linejoin:miter;stroke-miterlimit:10;stroke-dasharray:none;stroke-opacity:1"
       transform="matrix(0.23741628,0,0,0.23741628,52.201465,41.679553)"
       clip-path="url(#clipPath82)" />
    <text
       id="text82"
       xml:space="preserve"
       transform="matrix(0.23741628,0,0,0.23741628,139.48162,52.244577)"
       clip-path="url(#clipPath83)"><tspan
         style="font-style:oblique;font-variant:normal;font-weight:normal;font-size:12px;font-family:Helvetica;writing-mode:lr-tb;fill:#000000;fill-opacity:1;fill-rule:nonzero;stroke:none"
         x="0 7.0078125 14.015625 17.349609 24.023438 27.357422 34.03125 38.027344 41.361328 48.035156 54.035156 60.708984 67.716797"
         y="0"
         sodipodi:role="line"
         id="tspan82">&lt;&lt;Interface&gt;&gt;</tspan></text>
    <text
       id="text83"
       xml:space="preserve"
       transform="matrix(0.23741628,0,0,0.23741628,135.52716,55.568405)"
       clip-path="url(#clipPath84)"><tspan
         style="font-variant:normal;font-weight:700;font-size:12px;font-family:Helvetica;writing-mode:lr-tb;fill:#000000;fill-opacity:1;fill-rule:nonzero;stroke:none"
         x="0 8.6660156 13.335938 20.666016 28.013672 34.6875 38.021484 45.351562 52.025391 59.355469 66.685547 71.355469 82.025391 88.699219 92.695312 96.691406 103.36523"
         y="0"
         sodipodi:role="line"
         id="tspan83">ArgValueFormatter</tspan></text>
    <path
       id="path85"
       d="m 404.50003,109.99382 0.0371,-2.99977 0.99994,0.0124 -0.0371,2.99977 m -0.92575,-6.0119 0.0371,-2.99977 0.99994,0.0124 -0.0371,2.99977 m -0.92575,-6.011904 0.0371,-2.999771 0.99993,0.01236 -0.0371,2.999771 m -0.92575,-6.011902 0.0371,-2.999771 0.99994,0.01236 -0.0371,2.999771 m -0.92575,-6.011902 0.0233,-1.881828 0.99994,0.01236 -0.0233,1.881828"
       style="fill:#000000;fill-opacity:1;fill-rule:nonzero;stroke:none"
       transform="matrix(0.23741628,0,0,0.23741628,52.201465,41.679553)"
       clip-path="url(#clipPath86)" />
    <path
       id="path87"
       d="m 405.48999,71.120003 6.33002,13.079994 -13,-0.159996 z"
       style="fill:none;stroke:#000000;stroke-width:1;stroke-linecap:butt;stroke-linejoin:miter;stroke-miterlimit:10;stroke-dasharray:none;stroke-opacity:1"
       transform="matrix(0.23741628,0,0,0.23741628,52.201465,41.679553)"
       clip-path="url(#clipPath88)" />
    <path
       id="path89"
       d="m 569.5025,90.41922 -2.51532,1.634979 -0.54504,-0.83844 2.51532,-1.634979 m -4.4856,4.108398 -2.51532,1.63498 -0.54504,-0.83844 2.51532,-1.634979 m -4.4856,4.108398 -2.51532,1.634972 -0.54504,-0.83844 2.51532,-1.634972 m -4.4856,4.108393 -2.51532,1.63498 -0.54504,-0.83844 2.51532,-1.634982 m -4.4856,4.108402 -2.51532,1.63498 -0.54504,-0.83844 2.51532,-1.63498 m -4.4856,4.1084 -2.51532,1.63497 -0.54504,-0.83844 2.51532,-1.63497 m -4.4856,4.10839 -2.51538,1.63497 -0.54504,-0.83844 2.51538,-1.63497 m -4.48566,4.10839 -2.51532,1.63498 -0.54504,-0.83844 2.51532,-1.63498 m -4.4856,4.1084 -2.51532,1.63498 -0.54504,-0.83844 2.51532,-1.63498 m -4.4856,4.1084 -2.51532,1.63498 -0.54504,-0.83844 2.51532,-1.63498 m -4.4856,4.1084 -2.51531,1.63497 -0.54505,-0.83844 2.51532,-1.63497 m -4.48559,4.10839 -2.51536,1.63499 -0.54498,-0.83845 2.51529,-1.63498 m -4.48562,4.10839 -2.51532,1.63498 -0.54499,-0.83844 2.51532,-1.63498 m -4.48565,4.1084 -2.51532,1.63498 -0.54499,-0.83844 2.51532,-1.63498"
       style="fill:#000000;fill-opacity:1;fill-rule:nonzero;stroke:none"
       transform="matrix(0.23741628,0,0,0.23741628,52.201465,41.679553)"
       clip-path="url(#clipPath90)" />
    <path
       id="path91"
       d="m 530,50 h 127 l 13,13 V 90 H 530 Z"
       style="fill:#ffffcc;fill-opacity:1;fill-rule:nonzero;stroke:#000000;stroke-width:1;stroke-linecap:butt;stroke-linejoin:miter;stroke-miterlimit:10;stroke-dasharray:none;stroke-opacity:1"
       transform="matrix(0.23741628,0,0,0.23741628,52.201465,41.679553)"
       clip-path="url(#clipPath92)" />
    <path
       id="path93"
       d="m 657,50 v 13 h 13 z"
       style="fill:#000000;fill-opacity:0.05;fill-rule:nonzero;stroke:none"
       transform="matrix(0.23741628,0,0,0.23741628,52.201465,41.679553)"
       clip-path="url(#clipPath94)" />
    <path
       id="path95"
       d="m 657,50 v 13 h 13"
       style="fill:none;stroke:#000000;stroke-width:1;stroke-linecap:butt;stroke-linejoin:miter;stroke-miterlimit:10;stroke-dasharray:none;stroke-opacity:1"
       transform="matrix(0.23741628,0,0,0.23741628,52.201465,41.679553)"
       clip-path="url(#clipPath96)" />
    <text
       id="text96"
       xml:space="preserve"
       transform="matrix(0.23741628,0,0,0.23741628,178.38821,57.705152)"
       clip-path="url(#clipPath97)"><tspan
         style="font-variant:normal;font-weight:normal;font-size:10px;font-family:Helvetica;writing-mode:lr-tb;fill:#000000;fill-opacity:1;fill-rule:nonzero;stroke:none"
         x="0 6.6699219 12.231445 15.009766 17.788086 23.349609 26.12793 28.90625 31.68457 37.246094 40.576172 48.90625 54.467773 57.246094 60.024414 65.585938 68.916016 73.916016 76.694336 79.472656 85.03418"
         y="0"
         sodipodi:role="line"
         id="tspan96">Set of formatters for</tspan></text>
    <text
       id="text97"
       xml:space="preserve"
       transform="matrix(0.23741628,0,0,0.23741628,178.38821,61.028979)"
       clip-path="url(#clipPath98)"><tspan
         style="font-variant:normal;font-weight:normal;font-size:10px;font-family:Helvetica;writing-mode:lr-tb;fill:#000000;fill-opacity:1;fill-rule:nonzero;stroke:none"
         x="0 5.5615234 8.3398438 13.339844 18.901367 21.679688 24.458008 30.019531 32.797852 35.576172 40.576172 46.137695 54.467773 62.797852 68.359375 73.920898 76.699219 83.369141 88.930664 91.152344 94.482422 97.8125 103.37402 108.37402 113.93555 119.49707 124.49707"
         y="0"
         sodipodi:role="line"
         id="tspan97">a set of common Solr-Types.</tspan></text>
  </g>
</svg>
